<?xml version="1.0" encoding="UTF-8" standalone="no"?>
<!DOCTYPE svg PUBLIC "-//W3C//DTD SVG 1.1//EN" "http://www.w3.org/Graphics/SVG/1.1/DTD/svg11.dtd">
<svg width="100%" height="100%" viewBox="0 0 41 33" version="1.1" xmlns="http://www.w3.org/2000/svg" xmlns:xlink="http://www.w3.org/1999/xlink" xml:space="preserve" xmlns:serif="http://www.serif.com/" style="fill-rule:evenodd;clip-rule:evenodd;stroke-linejoin:round;stroke-miterlimit:1.41421;">
    <g id="Artboard1" transform="matrix(1.28501,0,0,1.0041,-1.87948,-1.80738)">
        <rect x="1.463" y="1.8" width="31.3" height="32.3" style="fill:none;"/>
        <g transform="matrix(0.89592,-0.181598,0.121738,0.983657,1.27929,5.9629)">
            <path d="M29.465,1.843C29.465,1.721 29.423,1.604 29.349,1.518C29.275,1.432 29.175,1.383 29.07,1.383C25.998,1.383 5.939,1.383 2.336,1.383C2.189,1.383 2.048,1.451 1.944,1.572C1.84,1.693 1.782,1.857 1.782,2.029C1.782,5.661 1.782,23.521 1.782,27.189C1.782,27.364 1.842,27.531 1.948,27.655C2.054,27.779 2.197,27.848 2.347,27.848C5.966,27.848 25.828,27.848 29.029,27.848C29.145,27.848 29.255,27.795 29.337,27.699C29.419,27.604 29.465,27.475 29.465,27.34C29.465,23.985 29.465,5.046 29.465,1.843Z" style="fill:url(#_Linear1);"/>
        </g>
        <g transform="matrix(0.712144,-0.144348,0.109301,0.88316,3.06389,4.74854)">
            <g transform="matrix(1.09077,0,0,1.17654,1.78153,0.746853)">
                <path d="M24.795,22.384C24.795,22.225 24.66,22.096 24.494,22.096C23.093,22.096 17.22,22.096 15.738,22.096C15.647,22.096 15.561,22.13 15.497,22.191C15.433,22.253 15.397,22.336 15.397,22.422C15.397,22.986 15.397,24.133 15.397,24.657C15.397,24.807 15.524,24.929 15.681,24.929C17.032,24.929 22.801,24.929 24.389,24.929C24.496,24.929 24.6,24.888 24.676,24.816C24.752,24.743 24.795,24.644 24.795,24.541C24.795,23.965 24.795,22.896 24.795,22.384Z" style="fill:url(#_Linear2);"/>
            </g>
            <g transform="matrix(1.06602,0.174236,-0.168841,1.10008,1.38533,-3.51931)">
                <path d="M20.181,15.732C20.181,15.732 12.479,9.708 10.597,8.236C10.37,8.059 10.33,7.731 10.508,7.504C10.888,7.017 11.52,6.21 11.914,5.706C12.108,5.457 12.468,5.413 12.718,5.607C14.72,7.168 22.789,13.457 24.815,15.037C24.933,15.128 25.005,15.266 25.014,15.414C25.023,15.563 24.968,15.708 24.863,15.813C22.708,17.963 12.851,27.798 11.155,29.49C11.089,29.556 10.999,29.593 10.906,29.593C10.813,29.593 10.723,29.556 10.658,29.49C10.195,29.025 9.205,28.032 8.755,27.58C8.627,27.451 8.627,27.243 8.756,27.115C10.399,25.478 20.181,15.732 20.181,15.732Z" style="fill:url(#_Linear3);"/>
            </g>
        </g>
    </g>
    <defs>
        <linearGradient id="_Linear1" x1="0" y1="0" x2="1" y2="0" gradientUnits="userSpaceOnUse" gradientTransform="matrix(27.6828,0,0,26.4651,1.78195,14.6156)"><stop offset="0" style="stop-color:rgb(87,87,87);stop-opacity:1"/><stop offset="1" style="stop-color:rgb(64,64,64);stop-opacity:1"/></linearGradient>
        <linearGradient id="_Linear2" x1="0" y1="0" x2="1" y2="0" gradientUnits="userSpaceOnUse" gradientTransform="matrix(16.7561,0,0,24.4832,8.52284,17.4971)"><stop offset="0" style="stop-color:rgb(109,193,255);stop-opacity:1"/><stop offset="1" style="stop-color:rgb(0,114,198);stop-opacity:1"/></linearGradient>
        <linearGradient id="_Linear3" x1="0" y1="0" x2="1" y2="0" gradientUnits="userSpaceOnUse" gradientTransform="matrix(16.7561,0,0,24.4832,8.52284,17.4971)"><stop offset="0" style="stop-color:rgb(109,193,255);stop-opacity:1"/><stop offset="1" style="stop-color:rgb(0,114,198);stop-opacity:1"/></linearGradient>
    </defs>
</svg>
